<svg xmlns="http://www.w3.org/2000/svg" viewBox="0 0 48 48"><defs><style>.cls-1{fill:#9fdbf3;}.cls-2{fill:#b2e5fb;}.cls-3{fill:#374f68;}.cls-4{fill:#425b72;}.cls-5{fill:#edebf2;}.cls-6{fill:#6fabe6;}.cls-7{fill:#82bcf4;}.cls-8{fill:#db5669;}.cls-9{fill:#f26674;}</style></defs><title>Computer analytic Growth</title><g id="Computer_analytic_Growth" data-name="Computer analytic Growth"><path class="cls-1" d="M47,6V32H1V6A2,2,0,0,1,3,4H45A2,2,0,0,1,47,6Z"/><path class="cls-2" d="M47,6V30H7a3,3,0,0,1-3-3V4H45A2,2,0,0,1,47,6Z"/><path class="cls-3" d="M47,32v3a2,2,0,0,1-2,2H3a2,2,0,0,1-2-2V32Z"/><path class="cls-4" d="M47,32v3H6a2,2,0,0,1-2-2V32Z"/><polygon class="cls-3" points="30 44 18 44 19.33 37 28.67 37 30 44"/><path class="cls-4" d="M29.62,42H26.09A4.22,4.22,0,0,1,22,37h6.72Z"/><path class="cls-3" d="M32,45H16a1,1,0,0,1,0-2H32A1,1,0,0,1,32,45Z"/><path class="cls-5" d="M16,10H6A1,1,0,0,1,6,8H16A1,1,0,0,1,16,10Z"/><path class="cls-5" d="M16,14H6a1,1,0,0,1,0-2H16A1,1,0,0,1,16,14Z"/><path class="cls-5" d="M12,18H6a1,1,0,0,1,0-2h6A1,1,0,0,1,12,18Z"/><rect class="cls-6" x="20" y="21" width="4" height="6"/><path class="cls-7" d="M24,21v4a2,2,0,0,1-2-2V21Z"/><rect class="cls-6" x="28" y="19" width="4" height="8"/><polygon class="cls-8" points="42 14 40 14 40 27 36 27 36 14 34 14 38 9 42 14"/><path class="cls-9" d="M42,14H40V25a2,2,0,0,1-2-2V14H36l3-3.75Z"/><path class="cls-7" d="M32,19v6a2,2,0,0,1-2-2V19Z"/><path class="cls-4" d="M42,28H18a1,1,0,0,1,0-2H42A1,1,0,0,1,42,28Z"/></g></svg>